# xmcd
#
# Track frame offsets:
#	150
#	24482
#	57573
#	81215
#	105747
#	118739
#	132109
#	162195
#	177665
#	196006
#	213514
#	232877
#	252981
#	272750
#	295258
#	316819
#	336574
#
# Disc length: 4751 seconds
#
# Revision: 1
# Processed by: cddbd v1.5.2PL0 Copyright (c) Steve Scherf et al.
# Submitted via: audiograbber 1.83.01
#
DISCID=fb128d11
DTITLE=Michael Martin Murphey - Austinology - Alleys of Austin
DYEAR=2018
DGENRE=Country
TTITLE0=Alleys of Austin
TTITLE1=South Canadian River Song
TTITLE2=Wildfire
TTITLE3=Geronimo's Cadillac
TTITLE4=Texas Trilogy - Daybreak
TTITLE5=Texas Trilogy - Trainride
TTITLE6=Texas Trilogy - Bosque County Romance
TTITLE7=Backslider's Wine
TTITLE8=La Freeway
TTITLE9=Texas Morning
TTITLE10=Cosmic Cowboy
TTITLE11=Little Bird
TTITLE12=Quicksilver Daydream of Maria
TTITLE13=Drunken Lady of the Morning
TTITLE14=Gringo Pistolero
TTITLE15=Outlaw Medley
TTITLE16=Honolulu
EXTD=
EXTT0=
EXTT1=
EXTT2=
EXTT3=
EXTT4=
EXTT5=
EXTT6=
EXTT7=
EXTT8=
EXTT9=
EXTT10=
EXTT11=
EXTT12=
EXTT13=
EXTT14=
EXTT15=
EXTT16=
PLAYORDER=
